<mxfile host="app.diagrams.net" modified="2024-01-14T17:17:37.156Z" agent="Mozilla/5.0 (Windows NT 10.0; Win64; x64; rv:121.0) Gecko/20100101 Firefox/121.0" etag="TnEAJF40yDcI2A2BWIxT" version="22.1.18" type="device">
  <diagram name="Pagina-1" id="gMacFsR6ciiGGY7DcOXg">
    <mxGraphModel dx="423" dy="866" grid="1" gridSize="10" guides="1" tooltips="1" connect="1" arrows="1" fold="1" page="1" pageScale="1" pageWidth="827" pageHeight="1169" math="0" shadow="0">
      <root>
        <mxCell id="0" />
        <mxCell id="1" parent="0" />
        <mxCell id="Mzl9VSNGsijEhwGPSrqK-4" style="rounded=0;orthogonalLoop=1;jettySize=auto;html=1;" parent="1" source="Mzl9VSNGsijEhwGPSrqK-6" target="Mzl9VSNGsijEhwGPSrqK-11" edge="1">
          <mxGeometry relative="1" as="geometry">
            <Array as="points" />
          </mxGeometry>
        </mxCell>
        <mxCell id="Mzl9VSNGsijEhwGPSrqK-5" value="t1_A_B" style="edgeLabel;html=1;align=center;verticalAlign=middle;resizable=0;points=[];" parent="Mzl9VSNGsijEhwGPSrqK-4" vertex="1" connectable="0">
          <mxGeometry x="0.05" y="-2" relative="1" as="geometry">
            <mxPoint x="-2" y="-12" as="offset" />
          </mxGeometry>
        </mxCell>
        <mxCell id="Mzl9VSNGsijEhwGPSrqK-6" value="q0" style="ellipse;whiteSpace=wrap;html=1;aspect=fixed;" parent="1" vertex="1">
          <mxGeometry x="240" y="160" width="40" height="40" as="geometry" />
        </mxCell>
        <mxCell id="Mzl9VSNGsijEhwGPSrqK-7" style="rounded=0;orthogonalLoop=1;jettySize=auto;html=1;edgeStyle=orthogonalEdgeStyle;" parent="1" source="Mzl9VSNGsijEhwGPSrqK-11" target="Mzl9VSNGsijEhwGPSrqK-6" edge="1">
          <mxGeometry relative="1" as="geometry">
            <Array as="points">
              <mxPoint x="380" y="240" />
              <mxPoint x="260" y="240" />
            </Array>
          </mxGeometry>
        </mxCell>
        <mxCell id="Mzl9VSNGsijEhwGPSrqK-8" value="e" style="edgeLabel;html=1;align=center;verticalAlign=middle;resizable=0;points=[];" parent="Mzl9VSNGsijEhwGPSrqK-7" vertex="1" connectable="0">
          <mxGeometry x="0.0866" y="-1" relative="1" as="geometry">
            <mxPoint x="9" y="-9" as="offset" />
          </mxGeometry>
        </mxCell>
        <mxCell id="Mzl9VSNGsijEhwGPSrqK-13" style="edgeStyle=orthogonalEdgeStyle;rounded=0;orthogonalLoop=1;jettySize=auto;html=1;" parent="1" source="Mzl9VSNGsijEhwGPSrqK-11" target="Mzl9VSNGsijEhwGPSrqK-12" edge="1">
          <mxGeometry relative="1" as="geometry" />
        </mxCell>
        <mxCell id="Mzl9VSNGsijEhwGPSrqK-14" value="t2_B_A" style="edgeLabel;html=1;align=center;verticalAlign=middle;resizable=0;points=[];" parent="Mzl9VSNGsijEhwGPSrqK-13" vertex="1" connectable="0">
          <mxGeometry x="0.05" y="-1" relative="1" as="geometry">
            <mxPoint x="-2" y="-11" as="offset" />
          </mxGeometry>
        </mxCell>
        <mxCell id="Mzl9VSNGsijEhwGPSrqK-11" value="q1" style="ellipse;whiteSpace=wrap;html=1;aspect=fixed;" parent="1" vertex="1">
          <mxGeometry x="360" y="160" width="40" height="40" as="geometry" />
        </mxCell>
        <mxCell id="Mzl9VSNGsijEhwGPSrqK-12" value="q2" style="ellipse;whiteSpace=wrap;html=1;aspect=fixed;" parent="1" vertex="1">
          <mxGeometry x="480" y="160" width="40" height="40" as="geometry" />
        </mxCell>
      </root>
    </mxGraphModel>
  </diagram>
</mxfile>

